<svg width="117" height="24" viewBox="0 0 117 24" fill="none" xmlns="http://www.w3.org/2000/svg">
<path d="M5 2.5L0 0.113249V5.88675L5 3.5V2.5ZM112.646 23.3536C112.842 23.5488 113.158 23.5488 113.354 23.3536L116.536 20.1716C116.731 19.9763 116.731 19.6597 116.536 19.4645C116.34 19.2692 116.024 19.2692 115.828 19.4645L113 22.2929L110.172 19.4645C109.976 19.2692 109.66 19.2692 109.464 19.4645C109.269 19.6597 109.269 19.9763 109.464 20.1716L112.646 23.3536ZM4.5 3.5H105V2.5H4.5V3.5ZM112.5 11V23H113.5V11H112.5ZM105 3.5C109.142 3.5 112.5 6.85787 112.5 11H113.5C113.5 6.30558 109.694 2.5 105 2.5V3.5Z" fill="#676CEF"/>
</svg>
