<svg width="117" height="24" viewBox="0 0 117 24" fill="none" xmlns="http://www.w3.org/2000/svg">
<path d="M5 21.5L0 23.8868V18.1132L5 20.5V21.5ZM112.646 0.646446C112.842 0.451183 113.158 0.451183 113.354 0.646446L116.536 3.82843C116.731 4.02369 116.731 4.34027 116.536 4.53553C116.34 4.73079 116.024 4.73079 115.828 4.53553L113 1.70711L110.172 4.53553C109.976 4.73079 109.66 4.73079 109.464 4.53553C109.269 4.34027 109.269 4.02369 109.464 3.82843L112.646 0.646446ZM4.5 20.5H105V21.5H4.5V20.5ZM112.5 13V1H113.5V13H112.5ZM105 20.5C109.142 20.5 112.5 17.1421 112.5 13H113.5C113.5 17.6944 109.694 21.5 105 21.5V20.5Z" fill="#676CEF"/>
</svg>
