<svg width="22" height="20" viewBox="0 0 22 20" fill="none" xmlns="http://www.w3.org/2000/svg">
<path d="M10.5668 18.3335C5.70387 18.3335 1.76172 14.6025 1.76172 10.0002C1.76172 5.39779 5.70387 1.66683 10.5668 1.66683C15.4296 1.66683 19.3718 5.39779 19.3718 10.0002C19.3718 14.6025 15.4296 18.3335 10.5668 18.3335Z" stroke="#FF5F55" stroke-width="1.75"/>
<path d="M10.5661 14.1665C10.0798 14.1665 9.68555 13.7934 9.68555 13.3332C9.68555 12.8729 10.0798 12.4998 10.5661 12.4998C11.0523 12.4998 11.4466 12.8729 11.4466 13.3332C11.4466 13.7934 11.0523 14.1665 10.5661 14.1665Z" fill="#FF5F55"/>
<path d="M11.4466 9.99984C11.4466 10.4601 11.0523 10.8332 10.5661 10.8332C10.0798 10.8332 9.68555 10.4601 9.68555 9.99984V6.66651C9.68555 6.20627 10.0798 5.83317 10.5661 5.83317C11.0523 5.83317 11.4466 6.20627 11.4466 6.66651V9.99984Z" fill="#FF5F55"/>
</svg>
